# xmcd
#
# Track frame offsets:
# 225
# 12487
# 42277
# 53477
# 75132
# 87335
# 101342
# 124492
# 142230
# 165392
# 197035
# 206242
# 217142
# 238500
# 260622
#
# Disc length: 4184 seconds
#
#
# Revision: 4
# Processed by: cddbd v1.5.1PL2 Copyright (c) Steve Scherf et al.
# Submitted via: FreeRIP 2.944 
#
DISCID=d410550f
DTITLE=Livin' Blues - 3 Originals - Disc 1
DYEAR=1998
DGENRE=Bluesrock
TTITLE0=Waintin' on you
TTITLE1=One night blues
TTITLE2=Bowlegged woman
TTITLE3=Hell's session
TTITLE4=Big road blues
TTITLE5=Black panther
TTITLE6=Worried dreams
TTITLE7=Big black train
TTITLE8=Wang dang doogie
TTITLE9=I came home at night
TTITLE10=Whiskey and gin
TTITLE11=This is the last hour
TTITLE12=When the sun goes down
TTITLE13=Go-go-train
TTITLE14=Spoonful
EXTD=
EXTT0=
EXTT1=
EXTT2=
EXTT3=
EXTT4=
EXTT5=
EXTT6=
EXTT7=
EXTT8=
EXTT9=
EXTT10=
EXTT11=
EXTT12=
EXTT13=
EXTT14=
PLAYORDER=
